<svg id="svg" version="1.1" xmlns="http://www.w3.org/2000/svg" xmlns:xlink="http://www.w3.org/1999/xlink" width="400" height="106.66666666666667" viewBox="0, 0, 400,106.66666666666667"><g id="svgg"><path id="path0" d="M95.024 22.981 C 94.101 23.100,93.667 23.436,93.667 24.032 C 93.667 24.198,93.610 24.339,93.542 24.346 C 93.473 24.353,93.267 24.397,93.083 24.443 C 92.900 24.490,92.619 24.537,92.458 24.549 C 92.298 24.562,92.167 24.635,92.167 24.712 C 92.167 24.790,92.098 24.810,92.013 24.758 C 91.929 24.706,91.583 24.925,91.244 25.245 L 90.628 25.826 75.265 25.871 C 58.510 25.921,58.805 25.903,59.047 26.829 C 59.193 27.386,58.917 27.545,57.851 27.521 C 57.291 27.509,56.833 27.567,56.833 27.650 C 56.833 27.734,56.683 27.763,56.500 27.715 C 56.196 27.635,56.082 27.795,56.147 28.208 C 56.158 28.277,56.083 28.333,55.981 28.333 C 55.878 28.333,55.831 28.473,55.876 28.644 C 55.951 28.931,55.800 28.960,53.810 29.041 C 51.457 29.136,51.234 29.223,51.069 30.100 C 50.967 30.642,50.931 30.667,50.231 30.667 L 49.500 30.667 49.500 31.392 L 49.500 32.118 48.375 32.214 C 46.551 32.369,46.535 32.385,46.380 34.208 L 46.285 35.333 45.638 35.333 C 44.931 35.333,44.667 35.694,44.667 36.659 C 44.667 37.022,44.571 37.154,44.253 37.234 C 43.347 37.462,43.250 37.999,43.250 42.766 C 43.250 47.498,43.282 47.667,44.167 47.667 L 44.627 47.667 44.746 49.251 C 44.872 50.939,45.005 51.131,45.936 50.971 C 46.196 50.926,46.264 51.046,46.333 51.667 C 46.416 52.415,46.418 52.417,47.125 52.468 C 47.808 52.517,47.833 52.539,47.833 53.081 C 47.833 53.798,48.205 54.167,48.929 54.167 C 49.464 54.167,49.500 54.201,49.500 54.717 C 49.500 55.429,49.756 55.667,50.520 55.667 C 51.070 55.667,51.152 55.722,51.247 56.155 C 51.410 56.896,52.485 57.389,53.808 57.329 C 54.143 57.314,57.160 57.308,60.512 57.317 L 66.608 57.333 66.762 57.958 C 66.901 58.519,66.990 58.600,67.625 58.740 L 68.333 58.897 68.333 59.699 L 68.333 60.500 62.292 60.515 C 58.969 60.524,55.923 60.518,55.523 60.502 C 55.039 60.482,54.834 60.533,54.908 60.653 C 54.975 60.761,54.878 60.833,54.669 60.833 C 54.476 60.833,54.337 60.927,54.359 61.042 C 54.530 61.934,54.326 62.000,51.394 62.000 C 48.555 62.000,48.000 62.108,48.000 62.659 C 48.000 63.236,47.801 63.500,47.357 63.512 C 46.557 63.533,46.403 63.698,46.353 64.583 C 46.327 65.042,46.223 65.446,46.121 65.483 C 45.247 65.796,45.141 66.203,45.197 69.022 L 45.250 71.704 45.792 72.156 C 46.260 72.547,46.333 72.712,46.333 73.381 C 46.333 74.264,46.592 74.500,47.561 74.500 C 48.029 74.500,48.154 74.570,48.197 74.858 C 48.341 75.828,48.657 75.879,54.416 75.861 C 60.147 75.843,60.202 75.834,61.040 74.843 C 61.320 74.512,61.495 74.500,66.123 74.493 C 72.107 74.484,72.505 74.422,72.730 73.466 C 72.828 73.048,72.790 73.009,72.210 72.918 C 71.865 72.865,71.321 72.745,71.000 72.651 C 70.679 72.558,68.092 72.415,65.250 72.333 C 54.910 72.037,55.333 72.269,55.333 66.914 C 55.333 61.800,54.800 62.090,63.914 62.250 C 74.953 62.444,74.831 62.446,75.500 62.064 C 77.427 60.964,77.985 60.502,78.095 59.914 C 78.155 59.593,78.271 59.289,78.352 59.238 C 78.664 59.046,78.504 57.498,78.089 56.678 C 77.641 55.795,77.244 55.420,76.238 54.933 C 75.878 54.759,75.358 54.499,75.083 54.355 C 74.678 54.143,73.607 54.071,69.417 53.971 C 62.293 53.801,61.005 53.623,59.882 52.651 C 59.588 52.397,59.094 52.069,58.785 51.922 C 58.136 51.614,56.299 49.892,55.578 48.917 C 55.307 48.550,55.041 48.212,54.987 48.167 C 54.711 47.934,54.013 46.466,53.758 45.583 C 53.599 45.033,53.284 44.081,53.057 43.467 C 52.555 42.109,52.410 40.821,52.652 39.875 C 52.752 39.485,52.912 38.851,53.009 38.465 C 53.105 38.079,53.248 37.685,53.327 37.590 C 53.406 37.495,53.524 37.117,53.591 36.750 C 53.903 35.020,55.695 32.202,57.125 31.193 C 57.471 30.949,57.667 30.671,57.667 30.424 C 57.667 29.711,58.158 29.352,59.322 29.212 C 60.329 29.091,60.401 29.054,60.527 28.584 C 60.782 27.628,60.250 27.667,73.204 27.667 C 88.174 27.667,86.833 27.295,86.833 31.446 C 86.833 35.399,86.270 36.833,84.719 36.833 C 84.552 36.833,84.205 37.057,83.947 37.330 C 83.689 37.603,83.427 37.812,83.364 37.794 C 82.614 37.585,82.500 38.066,82.500 41.423 C 82.500 44.394,82.475 44.668,82.208 44.685 C 82.048 44.695,81.673 44.724,81.375 44.749 C 80.879 44.791,80.833 44.754,80.833 44.314 C 80.833 44.050,80.758 43.833,80.667 43.833 C 80.575 43.833,80.500 43.716,80.500 43.573 C 80.500 43.431,80.425 43.360,80.333 43.417 C 80.242 43.473,80.167 43.440,80.167 43.343 C 80.167 43.246,80.087 43.167,79.990 43.167 C 79.893 43.167,79.870 43.260,79.939 43.375 C 80.026 43.520,79.979 43.514,79.785 43.357 C 79.577 43.188,79.157 43.155,78.128 43.227 C 76.272 43.356,76.281 43.354,76.029 43.554 C 75.871 43.679,75.770 43.667,75.675 43.513 C 75.485 43.205,74.822 43.442,74.948 43.773 C 75.028 43.979,75.073 43.986,75.187 43.806 C 75.272 43.672,75.329 43.658,75.331 43.771 C 75.334 43.994,74.922 44.367,74.804 44.249 C 74.759 44.204,74.722 44.267,74.722 44.389 C 74.722 44.511,74.803 44.624,74.903 44.640 C 75.002 44.656,75.678 44.738,76.404 44.824 C 77.131 44.909,77.886 45.019,78.083 45.068 C 78.280 45.118,78.882 45.201,79.422 45.253 C 80.595 45.367,80.582 45.359,80.646 46.065 C 80.657 46.194,80.943 46.348,81.292 46.412 C 82.118 46.565,82.897 47.059,83.134 47.579 C 83.240 47.811,83.397 48.000,83.485 48.000 C 83.673 48.000,83.962 48.279,84.417 48.900 C 84.600 49.150,84.961 49.593,85.220 49.885 C 86.199 50.992,87.222 52.751,87.511 53.824 C 87.673 54.425,87.961 55.459,88.152 56.123 C 88.661 57.887,88.508 60.483,87.841 61.417 C 87.775 61.508,87.625 62.033,87.507 62.583 C 87.197 64.027,86.008 65.915,84.296 67.684 C 83.954 68.036,83.631 68.501,83.577 68.717 C 83.508 68.990,83.226 69.216,82.656 69.457 C 81.666 69.875,81.343 71.333,82.241 71.333 C 82.518 71.333,82.744 71.495,82.947 71.840 C 83.112 72.119,83.416 72.390,83.623 72.442 C 83.955 72.525,84.000 72.641,84.000 73.417 C 84.000 74.468,84.052 74.500,85.765 74.500 C 86.813 74.500,87.048 74.553,87.293 74.845 C 88.303 76.047,92.142 76.156,92.799 75.003 C 93.039 74.580,93.188 74.501,93.750 74.494 C 94.849 74.480,95.835 74.228,96.086 73.896 C 96.573 73.253,96.312 72.833,95.424 72.833 C 95.214 72.833,94.705 72.684,94.293 72.502 C 92.556 71.733,92.667 73.297,92.667 49.584 C 92.667 34.964,92.612 28.817,92.475 27.987 C 92.194 26.283,92.361 26.000,93.647 26.000 C 94.585 26.000,94.631 25.981,94.553 25.625 C 94.487 25.324,94.506 25.299,94.650 25.500 C 94.791 25.698,94.829 25.702,94.831 25.521 C 94.833 25.333,94.879 25.331,95.093 25.508 C 95.305 25.684,95.343 25.684,95.301 25.507 C 95.273 25.389,95.344 25.257,95.458 25.215 C 95.596 25.165,95.634 25.243,95.571 25.444 C 95.478 25.739,95.482 25.739,95.669 25.447 C 95.851 25.161,95.875 25.160,96.072 25.429 C 96.214 25.624,96.424 25.688,96.728 25.630 C 96.974 25.583,97.210 25.602,97.253 25.672 C 97.296 25.741,97.591 25.740,97.908 25.669 C 98.226 25.597,98.507 25.604,98.534 25.684 C 98.561 25.764,99.033 25.878,99.583 25.936 C 100.133 25.994,100.710 26.107,100.864 26.187 C 101.018 26.268,101.487 26.333,101.906 26.333 L 102.667 26.333 102.667 30.833 C 102.667 35.425,102.694 35.612,103.275 34.958 C 103.930 34.221,104.082 33.271,104.082 29.883 C 104.083 26.442,104.017 26.188,103.120 26.172 C 102.767 26.166,102.597 25.790,102.612 25.045 C 102.619 24.745,102.542 24.500,102.442 24.500 C 102.343 24.500,101.900 24.144,101.458 23.708 L 100.654 22.917 98.286 22.891 C 96.983 22.877,95.515 22.917,95.024 22.981 M267.089 23.009 C 267.136 23.085,266.968 23.133,266.716 23.115 C 266.462 23.098,266.256 23.170,266.254 23.278 C 266.252 23.385,266.194 23.528,266.125 23.597 C 266.056 23.666,266.000 23.860,266.000 24.028 C 266.000 24.312,265.803 24.333,263.156 24.333 C 260.136 24.333,259.626 24.439,259.675 25.053 C 259.727 25.718,259.671 25.795,259.042 25.926 C 258.698 25.998,258.360 26.043,258.292 26.028 C 258.223 26.013,258.179 26.056,258.195 26.125 C 258.319 26.677,257.929 27.489,257.495 27.584 C 256.632 27.774,256.587 27.955,256.535 31.484 C 256.477 35.343,256.618 36.107,257.458 36.500 C 258.520 36.996,257.856 37.031,248.388 36.977 C 240.693 36.932,238.762 36.964,238.705 37.134 C 238.650 37.299,238.581 37.303,238.396 37.150 C 238.129 36.928,237.928 37.057,237.894 37.472 C 237.807 38.550,237.804 38.552,235.083 38.520 C 233.266 38.500,232.323 38.789,232.000 39.467 C 231.754 39.983,231.728 39.993,230.500 40.022 C 228.167 40.075,227.976 40.006,228.109 39.158 C 228.191 38.639,227.915 38.473,227.125 38.567 C 226.704 38.616,226.581 38.495,226.655 38.100 C 226.671 38.018,226.630 37.830,226.564 37.683 C 226.499 37.537,226.439 37.367,226.431 37.306 C 226.398 37.051,226.149 36.987,224.909 36.914 C 223.535 36.833,223.337 36.721,223.458 36.087 C 223.598 35.359,223.262 35.324,216.665 35.372 C 211.389 35.410,210.465 35.453,210.330 35.667 C 210.189 35.889,210.171 35.889,210.164 35.667 C 210.158 35.477,210.096 35.496,209.908 35.745 C 209.771 35.926,209.698 36.174,209.744 36.296 C 209.797 36.431,209.756 36.472,209.639 36.399 C 209.512 36.321,209.475 36.389,209.530 36.599 C 209.608 36.899,209.489 36.918,207.419 36.939 C 204.862 36.965,203.667 37.379,203.667 38.238 C 203.667 38.410,203.510 38.503,203.208 38.509 C 201.228 38.548,200.533 38.792,200.392 39.497 C 200.300 39.958,200.235 40.000,199.604 40.003 C 198.714 40.006,198.551 40.130,198.535 40.817 C 198.518 41.487,198.299 41.661,197.469 41.664 C 196.496 41.668,196.355 43.903,197.217 45.667 C 197.556 46.361,197.583 46.657,197.583 49.670 L 197.583 52.923 197.053 54.003 C 196.761 54.597,196.329 55.938,196.094 56.982 C 195.859 58.026,195.565 58.963,195.441 59.065 C 195.008 59.422,194.389 60.423,194.169 61.125 C 194.047 61.514,193.592 62.273,193.158 62.811 C 192.724 63.350,192.322 63.939,192.265 64.121 C 192.146 64.494,191.244 65.355,191.111 65.222 C 191.063 65.174,190.833 65.439,190.598 65.809 C 190.275 66.322,190.032 66.510,189.586 66.594 C 189.153 66.675,189.000 66.789,189.000 67.030 C 189.000 67.697,188.687 67.986,187.839 68.098 C 187.069 68.200,187.015 68.240,186.967 68.727 C 186.924 69.173,186.835 69.262,186.333 69.360 C 184.511 69.714,184.250 69.867,184.250 70.583 L 184.250 71.250 185.598 71.300 C 186.717 71.341,186.986 71.300,187.181 71.059 C 187.386 70.807,187.385 70.788,187.167 70.917 C 186.959 71.039,186.952 71.021,187.124 70.808 C 187.237 70.668,187.281 70.503,187.221 70.443 C 187.160 70.383,187.193 70.333,187.293 70.333 C 187.394 70.333,187.500 70.209,187.529 70.057 C 187.571 69.842,187.809 69.771,188.609 69.738 C 189.736 69.691,190.333 69.459,190.333 69.068 C 190.333 68.919,190.247 68.858,190.125 68.919 C 190.010 68.977,190.048 68.917,190.208 68.786 C 190.369 68.654,190.500 68.461,190.500 68.357 C 190.500 68.250,190.760 68.167,191.093 68.167 C 191.442 68.167,191.644 68.099,191.585 68.002 C 191.524 67.904,191.599 67.882,191.768 67.947 C 191.997 68.035,192.035 67.985,191.959 67.695 C 191.907 67.496,191.941 67.333,192.035 67.333 C 192.129 67.333,192.173 67.165,192.134 66.958 C 192.068 66.609,192.122 66.583,192.906 66.583 L 193.750 66.583 193.801 67.292 C 193.829 67.681,193.921 68.000,194.004 68.000 C 194.330 68.000,195.287 69.156,195.604 69.932 C 195.993 70.883,196.667 71.313,197.792 71.325 C 198.500 71.333,198.661 71.572,198.514 72.393 C 198.455 72.718,198.915 73.000,199.504 73.000 C 200.050 73.000,200.157 73.065,200.304 73.487 C 200.584 74.290,201.215 74.450,204.258 74.491 C 204.875 74.499,204.951 74.550,205.144 75.083 C 205.431 75.877,205.651 75.917,209.801 75.917 L 213.353 75.917 213.673 75.500 C 213.849 75.271,213.994 74.963,213.996 74.815 C 213.999 74.599,214.262 74.530,215.355 74.455 C 216.784 74.357,217.056 74.216,217.226 73.485 C 217.325 73.058,217.310 73.051,215.538 72.680 C 213.095 72.169,212.258 71.913,211.355 71.404 C 210.931 71.164,209.997 70.751,209.281 70.485 C 207.707 69.899,205.165 67.813,203.902 66.069 C 203.727 65.828,203.507 65.544,203.414 65.440 C 202.312 64.202,200.975 61.381,200.068 58.377 C 199.708 57.186,199.619 51.648,199.949 50.984 C 200.280 50.318,200.833 49.025,200.833 48.917 C 200.833 48.861,200.989 48.463,201.179 48.033 C 201.369 47.602,201.636 46.987,201.773 46.667 C 202.107 45.883,202.699 44.770,202.836 44.667 C 202.898 44.621,203.210 44.208,203.530 43.750 C 204.403 42.501,205.947 40.964,206.717 40.576 C 207.219 40.323,207.437 40.092,207.537 39.703 C 207.700 39.076,207.982 38.900,209.042 38.766 C 209.477 38.712,210.171 38.625,210.583 38.573 C 211.179 38.499,211.333 38.414,211.333 38.160 C 211.333 37.353,211.919 37.250,216.493 37.250 C 221.117 37.250,221.747 37.349,221.937 38.104 C 221.991 38.322,222.084 38.502,222.143 38.504 C 222.777 38.530,225.632 38.853,225.859 38.925 C 226.031 38.979,226.199 39.253,226.260 39.579 C 226.358 40.103,226.418 40.147,227.174 40.251 C 227.980 40.362,227.982 40.364,228.033 41.046 C 228.078 41.659,228.139 41.745,228.612 41.867 C 229.080 41.987,229.182 42.126,229.500 43.083 C 229.698 43.677,229.928 44.206,230.013 44.258 C 230.210 44.379,230.214 45.118,230.018 45.239 C 229.937 45.289,229.821 45.528,229.760 45.770 C 229.568 46.535,228.872 47.438,226.542 49.944 C 226.060 50.461,225.667 50.982,225.667 51.102 C 225.667 51.221,225.367 51.635,225.000 52.020 C 224.633 52.406,224.333 52.790,224.333 52.874 C 224.333 52.959,224.076 53.277,223.763 53.582 C 223.438 53.897,223.168 54.341,223.138 54.610 C 223.095 54.984,222.961 55.123,222.500 55.272 C 222.050 55.417,221.878 55.589,221.750 56.022 C 221.514 56.817,221.392 56.961,220.851 57.079 C 220.456 57.166,220.356 57.292,220.274 57.801 C 220.181 58.383,219.366 59.500,219.035 59.500 C 218.952 59.500,218.766 59.801,218.621 60.168 C 218.417 60.690,218.249 60.858,217.860 60.936 C 217.586 60.991,217.152 61.255,216.896 61.521 L 216.431 62.007 216.859 62.434 C 217.255 62.830,217.334 62.848,217.935 62.672 C 218.291 62.568,219.025 62.416,219.566 62.334 C 220.649 62.170,220.806 62.074,220.915 61.507 C 221.003 61.049,220.907 61.125,221.859 60.772 C 222.397 60.572,222.664 60.369,222.730 60.104 C 223.024 58.931,226.144 58.804,226.428 59.954 C 226.574 60.546,226.625 60.586,227.292 60.635 C 227.998 60.686,228.000 60.688,228.000 61.348 C 228.000 62.125,228.069 62.170,229.458 62.312 C 229.592 62.326,229.668 62.617,229.671 63.125 C 229.673 63.560,229.740 64.196,229.819 64.538 C 230.116 65.815,228.734 67.760,226.670 68.972 C 225.836 69.461,225.446 69.812,225.176 70.315 C 225.072 70.510,224.693 70.735,224.289 70.840 C 222.567 71.292,222.285 71.437,222.236 71.894 C 222.210 72.136,222.252 72.333,222.329 72.333 C 222.406 72.333,222.432 72.474,222.387 72.646 C 222.329 72.869,222.394 72.958,222.611 72.957 C 223.487 72.950,223.667 73.011,223.667 73.315 C 223.667 74.198,224.108 74.369,226.593 74.453 C 228.712 74.523,228.944 74.562,229.226 74.889 C 229.472 75.173,229.799 75.270,230.809 75.358 C 231.510 75.419,232.533 75.550,233.083 75.650 C 234.153 75.844,240.825 75.900,241.891 75.724 C 242.300 75.656,242.721 75.423,243.057 75.078 L 243.583 74.538 246.559 74.474 C 249.441 74.412,249.545 74.398,249.851 74.020 C 250.309 73.454,250.255 73.045,249.708 72.932 C 247.262 72.428,245.795 72.307,240.583 72.179 C 233.917 72.016,234.115 72.062,233.429 70.532 C 232.973 69.514,232.961 61.956,233.417 62.093 C 233.508 62.120,236.030 62.188,239.021 62.243 C 242.524 62.307,244.984 62.429,245.937 62.585 C 247.704 62.875,251.703 62.891,252.417 62.612 C 253.589 62.154,253.596 62.138,253.098 61.223 C 252.362 59.872,252.280 59.852,247.000 59.790 C 242.645 59.738,239.989 59.478,239.228 59.028 C 237.896 58.241,235.508 55.900,235.011 54.895 C 234.791 54.449,234.563 54.046,234.506 54.000 C 233.363 53.086,232.740 48.940,233.417 46.754 C 233.686 45.883,234.317 44.475,234.502 44.333 C 234.561 44.288,234.788 43.890,235.006 43.450 C 235.223 43.010,235.648 42.453,235.950 42.212 C 236.258 41.966,236.500 41.620,236.500 41.424 C 236.500 40.868,236.945 40.381,237.556 40.266 C 238.010 40.181,238.150 40.056,238.274 39.626 C 238.396 39.198,238.559 39.051,239.088 38.892 C 240.036 38.606,260.347 38.581,260.632 38.865 C 260.978 39.211,260.693 45.899,260.293 46.802 C 259.882 47.732,260.676 47.647,251.879 47.702 L 244.175 47.750 243.712 48.251 C 243.458 48.527,243.041 48.903,242.786 49.087 L 242.321 49.421 243.202 50.012 C 244.563 50.925,245.014 50.983,251.417 51.067 C 257.691 51.148,258.065 51.198,258.218 51.965 C 258.321 52.479,258.989 53.213,259.662 53.551 C 260.121 53.782,261.503 55.455,262.012 56.397 C 263.373 58.911,262.905 65.036,261.205 66.962 C 261.022 67.170,260.704 67.582,260.500 67.878 C 260.296 68.174,259.758 68.714,259.304 69.077 C 258.671 69.584,258.434 69.908,258.284 70.468 L 258.089 71.199 257.336 71.107 C 255.513 70.883,254.331 71.703,255.137 72.632 C 255.481 73.029,255.761 73.132,255.569 72.792 C 255.475 72.625,255.496 72.625,255.676 72.792 C 255.959 73.055,257.667 73.073,257.667 72.813 C 257.667 72.684,257.744 72.690,257.917 72.833 C 258.054 72.947,258.167 73.291,258.167 73.598 C 258.167 74.398,258.409 74.464,261.503 74.519 C 267.692 74.628,268.815 74.565,268.998 74.101 C 269.074 73.908,269.312 73.600,269.526 73.417 L 269.917 73.083 269.475 73.032 C 268.658 72.938,267.076 70.944,266.843 69.716 C 266.758 69.268,266.672 62.260,266.652 54.077 L 266.615 39.250 267.099 39.000 C 267.825 38.625,274.532 38.540,275.080 38.899 C 275.291 39.037,275.656 39.176,275.892 39.208 C 276.128 39.239,276.369 39.314,276.429 39.373 C 276.586 39.531,276.530 41.566,276.356 42.025 C 276.274 42.240,276.194 42.454,276.178 42.500 C 275.903 43.317,275.842 45.898,275.834 57.062 C 275.826 69.896,275.818 70.217,275.496 70.626 C 274.709 71.626,275.281 73.608,276.115 72.774 C 276.172 72.716,276.320 72.753,276.443 72.855 C 276.608 72.992,276.667 72.991,276.667 72.854 C 276.667 72.643,278.366 72.588,278.569 72.792 C 278.713 72.936,278.795 72.951,279.570 72.979 C 280.051 72.997,280.156 73.073,280.242 73.463 C 280.386 74.118,280.860 74.348,282.286 74.456 C 283.183 74.524,283.557 74.621,283.627 74.804 C 283.756 75.139,284.207 75.582,284.554 75.716 C 285.079 75.917,284.834 76.148,284.042 76.199 L 283.250 76.250 283.206 81.191 C 283.151 87.375,283.031 87.000,285.061 87.000 C 286.594 87.000,286.633 87.010,286.735 87.415 C 287.058 88.704,290.061 88.537,290.517 87.204 C 290.565 87.064,291.793 87.004,294.937 86.989 C 299.717 86.966,299.941 86.925,300.245 86.019 C 300.422 85.488,300.484 85.451,301.259 85.411 C 302.382 85.352,302.974 85.090,303.174 84.563 C 303.387 84.003,303.430 84.030,302.159 83.917 C 301.567 83.865,300.916 83.786,300.712 83.742 C 299.963 83.581,297.597 83.981,296.769 84.408 C 296.320 84.639,295.795 84.793,295.602 84.749 C 295.408 84.706,295.025 84.633,294.750 84.589 C 294.476 84.544,294.167 84.393,294.065 84.254 C 293.963 84.114,293.794 84.000,293.690 84.000 C 293.585 84.000,293.500 83.941,293.500 83.870 C 293.500 83.798,293.286 83.659,293.024 83.560 C 292.245 83.266,292.034 82.336,292.008 79.083 L 291.986 76.303 292.588 75.735 C 293.246 75.114,293.340 75.096,295.615 75.160 C 297.182 75.204,298.710 74.943,299.180 74.552 C 299.325 74.432,299.499 74.333,299.568 74.333 C 299.854 74.333,301.930 73.427,302.152 73.205 C 303.180 72.177,300.801 71.839,295.488 72.259 C 293.738 72.397,291.719 71.953,290.536 71.170 C 290.118 70.893,289.643 70.667,289.481 70.667 C 289.319 70.667,289.146 70.601,289.097 70.522 C 289.047 70.442,288.785 70.332,288.513 70.278 C 288.071 70.189,286.343 69.022,285.650 68.344 C 285.503 68.201,285.128 67.850,284.817 67.564 C 284.505 67.279,283.991 66.725,283.675 66.335 C 283.359 65.944,283.013 65.537,282.906 65.430 C 282.798 65.322,282.663 65.088,282.605 64.909 C 282.547 64.730,282.167 64.068,281.761 63.439 C 281.147 62.488,281.003 62.108,280.908 61.189 C 280.799 60.127,280.359 58.524,279.946 57.683 C 279.685 57.151,279.677 52.310,279.936 51.984 C 280.246 51.595,280.786 49.812,280.912 48.765 C 280.977 48.223,281.116 47.623,281.220 47.432 C 281.475 46.963,282.365 45.539,283.102 44.420 C 283.796 43.365,286.192 40.833,286.497 40.833 C 286.861 40.833,288.000 39.816,288.000 39.490 C 288.000 39.025,288.844 38.667,289.950 38.664 C 291.039 38.661,291.239 38.576,291.405 38.041 C 291.640 37.290,295.114 36.907,299.000 37.205 C 301.094 37.365,301.310 37.429,301.544 37.963 C 301.823 38.597,301.958 38.661,303.031 38.664 C 304.362 38.668,304.770 38.858,304.896 39.534 C 305.000 40.085,305.016 40.094,306.273 40.294 C 307.635 40.511,308.000 40.697,308.000 41.177 C 308.000 41.344,308.075 41.527,308.167 41.583 C 308.258 41.640,308.333 41.527,308.333 41.332 C 308.333 40.687,308.650 40.340,309.339 40.230 C 309.926 40.136,310.000 40.072,310.000 39.659 C 310.000 38.697,310.058 38.667,311.903 38.667 C 313.024 38.667,313.685 38.738,313.843 38.875 C 314.050 39.055,314.070 41.111,313.984 53.833 C 313.874 70.058,313.871 70.101,312.784 71.917 C 312.672 72.105,312.580 72.904,312.573 73.750 C 312.557 75.681,312.561 75.667,312.156 75.667 C 311.382 75.667,311.157 75.957,311.188 76.917 C 311.214 77.701,311.253 77.799,311.495 77.669 C 311.648 77.587,311.918 77.542,312.095 77.568 C 312.272 77.594,312.516 77.496,312.637 77.349 C 312.808 77.144,312.830 77.141,312.736 77.333 C 312.664 77.480,312.676 77.526,312.765 77.445 C 312.848 77.369,312.926 77.041,312.939 76.716 C 312.965 76.054,313.168 75.861,313.771 75.927 C 315.487 76.116,317.741 75.552,318.301 74.795 C 318.481 74.551,318.784 74.499,320.051 74.494 C 321.651 74.488,323.567 74.166,323.883 73.851 C 323.984 73.749,324.193 73.667,324.348 73.667 C 324.503 73.667,324.807 73.519,325.023 73.339 L 325.417 73.011 324.333 72.992 C 323.737 72.981,323.100 72.949,322.917 72.920 C 322.733 72.891,322.208 72.812,321.750 72.744 C 320.764 72.599,320.392 72.320,320.240 71.608 C 320.179 71.319,320.043 70.978,319.939 70.850 C 319.803 70.682,319.716 66.364,319.628 55.516 C 319.561 47.211,319.498 40.133,319.487 39.787 C 319.435 38.127,322.691 38.157,323.472 39.823 C 323.923 40.784,326.495 40.708,326.741 39.727 C 326.912 39.045,327.753 38.668,329.104 38.667 C 330.594 38.667,331.333 38.523,331.333 38.233 C 331.333 37.399,334.953 37.120,336.401 37.843 C 336.815 38.050,337.120 38.274,337.079 38.341 C 336.986 38.491,338.060 38.646,339.500 38.690 C 340.096 38.709,340.827 38.824,341.124 38.947 C 341.422 39.070,341.703 39.170,341.749 39.169 C 342.097 39.161,342.165 39.182,342.149 39.292 C 342.073 39.817,342.404 40.131,343.118 40.212 C 343.967 40.307,344.160 40.507,344.164 41.292 C 344.166 41.791,344.621 42.041,345.076 41.792 C 345.229 41.708,345.656 42.427,345.661 42.778 C 345.670 43.390,345.853 43.667,346.247 43.667 C 346.741 43.667,346.893 43.892,347.150 45.000 C 347.487 46.458,347.506 46.500,347.835 46.500 C 348.278 46.500,349.000 48.828,349.000 50.255 C 349.000 50.692,349.427 51.136,349.535 50.811 C 349.579 50.678,349.687 50.660,349.843 50.757 C 350.226 50.996,350.500 50.989,350.500 50.740 C 350.500 50.591,350.398 50.549,350.208 50.620 C 349.954 50.715,349.945 50.694,350.144 50.450 C 350.269 50.296,350.435 50.210,350.513 50.258 C 350.660 50.349,350.688 47.084,350.545 46.709 C 350.500 46.594,350.341 46.499,350.191 46.497 C 349.964 46.495,349.957 46.469,350.153 46.345 C 350.464 46.148,350.007 45.405,349.408 45.132 C 349.056 44.972,349.000 44.834,349.000 44.130 C 349.000 43.628,348.936 43.353,348.833 43.417 C 348.742 43.473,348.666 43.421,348.664 43.302 C 348.662 43.143,348.617 43.152,348.500 43.333 C 348.392 43.500,348.338 43.514,348.336 43.375 C 348.334 43.260,348.146 43.167,347.917 43.167 C 347.550 43.167,347.304 42.585,347.542 42.280 C 347.665 42.122,346.993 41.702,346.454 41.601 C 345.850 41.488,345.682 41.146,345.813 40.295 C 345.837 40.138,345.016 39.928,344.887 40.057 C 344.739 40.205,344.144 39.839,344.250 39.666 C 344.302 39.583,344.294 39.317,344.233 39.075 C 344.152 38.751,344.085 38.694,343.981 38.859 C 343.872 39.030,343.838 39.012,343.836 38.780 C 343.834 38.568,343.720 38.485,343.458 38.507 C 342.747 38.564,342.667 38.507,342.667 37.937 C 342.667 37.143,342.374 36.982,340.818 36.920 C 339.477 36.866,339.446 36.855,339.241 36.367 C 339.028 35.860,338.028 35.360,337.670 35.581 C 337.576 35.639,337.500 35.612,337.500 35.520 C 337.500 35.415,336.277 35.359,334.170 35.366 C 332.339 35.372,330.880 35.441,330.929 35.520 C 330.978 35.599,330.904 35.619,330.766 35.566 C 330.522 35.473,330.439 35.650,330.298 36.561 C 330.254 36.850,330.025 36.877,327.200 36.932 C 325.522 36.964,324.083 37.032,324.003 37.082 C 323.922 37.131,323.810 37.098,323.754 37.007 C 323.698 36.916,323.213 36.847,322.677 36.855 C 321.896 36.866,321.632 36.799,321.351 36.518 C 320.917 36.084,320.754 36.079,320.343 36.491 C 320.164 36.669,319.752 36.865,319.426 36.926 C 319.100 36.987,318.833 37.101,318.833 37.179 C 318.833 37.258,318.665 37.403,318.458 37.503 C 318.098 37.678,318.096 37.675,318.407 37.426 C 318.585 37.283,318.660 37.168,318.574 37.169 C 318.252 37.174,318.023 37.434,317.914 37.918 C 317.853 38.192,317.764 38.557,317.717 38.729 C 317.658 38.944,317.694 39.003,317.832 38.917 C 317.982 38.825,317.991 38.872,317.866 39.105 C 317.697 39.421,317.667 39.533,317.667 39.833 C 317.667 39.925,317.292 40.000,316.833 40.000 L 316.000 40.000 315.979 39.417 C 315.968 39.096,315.943 38.777,315.924 38.708 C 315.675 37.804,315.580 37.674,314.918 37.334 C 314.521 37.130,314.119 37.010,314.026 37.067 C 313.933 37.125,313.809 37.096,313.752 37.003 C 313.622 36.793,310.888 36.776,310.760 36.984 C 310.708 37.067,310.516 37.096,310.333 37.048 C 310.021 36.967,309.896 37.209,309.984 37.721 C 309.998 37.796,309.937 37.814,309.851 37.761 C 309.689 37.661,309.243 38.022,309.137 38.340 C 309.102 38.444,308.557 38.526,307.830 38.535 L 306.583 38.552 306.531 38.023 C 306.474 37.450,305.906 36.949,305.386 37.013 C 304.474 37.125,303.328 36.787,303.225 36.375 C 302.992 35.450,302.295 35.344,296.467 35.352 C 290.085 35.361,289.676 35.428,289.669 36.458 C 289.668 36.703,289.565 36.834,289.375 36.834 C 284.389 36.849,283.333 37.054,283.333 38.004 C 283.333 38.490,283.316 38.500,282.458 38.509 C 281.121 38.524,280.458 38.812,280.273 39.458 C 280.136 39.940,280.052 40.000,279.518 40.003 C 278.820 40.006,278.461 40.189,278.507 40.518 C 278.573 40.992,278.496 41.667,278.375 41.667 C 278.306 41.667,278.276 41.208,278.307 40.647 C 278.349 39.917,278.311 39.661,278.176 39.744 C 278.045 39.825,278.019 39.733,278.091 39.444 C 278.207 38.985,277.690 38.558,277.232 38.734 C 277.007 38.820,276.691 38.001,276.801 37.616 C 276.856 37.422,276.446 37.049,276.072 36.954 C 275.779 36.879,275.782 36.870,276.105 36.853 C 276.536 36.829,276.869 36.460,276.826 36.052 C 276.768 35.486,276.833 35.147,276.983 35.239 C 277.208 35.379,278.175 35.148,278.071 34.980 C 278.021 34.899,278.079 34.832,278.198 34.831 C 278.359 34.829,278.352 34.788,278.171 34.673 C 277.960 34.539,277.964 34.503,278.201 34.412 C 278.536 34.284,278.551 33.000,278.217 33.000 C 278.104 33.000,278.048 32.902,278.094 32.783 C 278.152 32.630,277.978 32.554,277.505 32.526 C 277.034 32.498,276.833 32.553,276.833 32.710 C 276.833 34.088,273.887 35.579,271.542 35.387 C 271.427 35.378,271.333 35.437,271.333 35.519 C 271.333 35.717,270.546 35.709,270.423 35.510 C 270.369 35.423,269.971 35.300,269.538 35.235 C 268.631 35.099,267.697 34.563,267.189 33.886 C 266.995 33.628,266.768 33.333,266.683 33.230 C 265.722 32.072,265.832 27.083,266.833 26.381 C 267.403 25.982,267.667 25.648,267.667 25.325 C 267.667 24.886,268.259 24.552,269.275 24.419 C 270.104 24.310,270.235 24.175,269.952 23.722 C 269.885 23.615,269.949 23.408,270.094 23.263 C 270.239 23.119,270.333 22.991,270.304 22.980 C 270.024 22.878,267.024 22.904,267.089 23.009 M272.407 23.016 C 272.368 23.079,272.446 23.174,272.582 23.227 C 272.777 23.301,272.794 23.415,272.660 23.767 C 272.450 24.320,272.393 24.273,273.648 24.566 C 274.697 24.811,275.151 25.154,275.161 25.708 C 275.164 25.875,275.294 26.000,275.463 26.000 C 276.006 26.000,276.496 26.505,276.686 27.259 L 276.873 28.000 277.662 28.000 L 278.451 28.000 278.459 26.750 C 278.463 26.063,278.401 25.500,278.322 25.500 C 278.242 25.500,278.221 25.387,278.274 25.248 C 278.415 24.879,278.069 24.550,277.411 24.427 C 276.891 24.329,276.833 24.263,276.833 23.771 C 276.833 23.369,276.733 23.173,276.458 23.036 C 276.055 22.835,272.530 22.817,272.407 23.016 M162.655 25.901 C 162.614 25.942,162.206 26.010,161.749 26.052 C 160.555 26.163,159.998 26.429,159.788 26.985 L 159.606 27.468 156.845 27.529 C 153.031 27.614,153.003 27.641,153.001 31.125 C 153.000 32.234,152.933 33.000,152.837 33.000 C 152.429 33.000,151.681 34.874,151.573 36.167 C 151.546 36.487,151.519 36.801,151.512 36.862 C 151.505 36.924,150.244 36.967,148.708 36.959 C 145.462 36.940,145.257 36.972,145.229 37.516 C 145.174 38.590,145.485 38.500,141.844 38.500 C 138.450 38.500,137.730 38.605,137.563 39.122 C 137.317 39.885,137.284 39.927,137.205 39.587 C 137.162 39.406,137.005 39.157,136.856 39.033 C 136.656 38.869,136.650 38.841,136.833 38.929 C 137.023 39.020,137.038 39.000,136.897 38.846 C 136.795 38.735,136.457 38.624,136.147 38.600 C 135.644 38.561,135.589 38.509,135.636 38.117 C 135.669 37.848,135.559 37.537,135.355 37.318 L 135.020 36.958 123.378 36.938 C 110.751 36.915,110.643 36.922,110.876 37.811 C 111.029 38.399,110.603 38.500,107.965 38.502 C 105.059 38.505,104.612 38.627,104.533 39.441 C 104.486 39.921,104.427 39.965,103.733 40.043 C 102.787 40.150,102.798 40.136,102.646 41.377 C 102.575 41.949,102.364 42.895,102.176 43.480 C 101.831 44.551,101.666 49.471,101.931 50.771 C 102.185 52.014,102.913 51.934,103.880 50.555 C 104.523 49.639,105.800 47.936,106.235 47.417 C 106.465 47.142,107.125 46.318,107.701 45.586 C 108.278 44.855,108.871 44.134,109.019 43.984 C 109.166 43.835,109.423 43.483,109.589 43.203 C 109.754 42.922,110.056 42.604,110.260 42.495 C 110.642 42.290,110.849 41.944,111.103 41.083 C 111.198 40.760,111.441 40.495,111.788 40.333 C 112.190 40.147,112.327 39.974,112.330 39.651 C 112.338 38.704,112.526 38.667,117.351 38.667 C 122.211 38.667,122.394 38.702,122.536 39.670 C 122.603 40.129,121.978 41.111,121.160 41.833 C 121.108 41.879,120.894 42.200,120.683 42.546 C 120.473 42.892,120.203 43.273,120.083 43.393 C 119.963 43.513,119.472 44.092,118.992 44.680 C 118.511 45.269,118.033 45.825,117.930 45.917 C 117.618 46.194,116.562 47.717,116.314 48.248 C 116.185 48.523,115.875 48.845,115.623 48.966 C 115.372 49.086,115.161 49.312,115.154 49.467 C 115.112 50.396,114.864 50.752,114.163 50.892 L 113.667 50.992 113.667 52.658 L 113.667 54.324 114.208 54.463 C 114.800 54.615,115.125 55.389,115.153 56.714 C 115.163 57.155,115.254 57.375,115.458 57.447 C 116.046 57.656,116.304 58.043,116.590 59.148 C 116.805 59.975,117.052 60.464,117.514 60.974 C 118.063 61.581,119.167 63.582,119.167 63.971 C 119.167 64.047,119.362 64.290,119.602 64.513 C 119.994 64.877,120.833 66.429,120.833 66.790 C 120.833 66.869,121.054 67.235,121.325 67.602 C 122.036 68.570,122.322 69.577,122.389 71.351 C 122.427 72.375,122.514 72.924,122.641 72.938 C 122.747 72.949,123.283 72.968,123.833 72.979 L 124.833 73.000 124.833 73.573 C 124.833 74.289,124.921 74.341,126.389 74.496 C 127.046 74.565,127.384 74.632,127.141 74.644 C 126.574 74.673,125.333 75.331,125.333 75.602 C 125.333 75.716,125.202 75.941,125.042 76.102 C 124.777 76.367,124.750 76.861,124.750 81.536 C 124.750 87.318,124.673 86.993,126.042 86.997 C 126.477 86.999,126.833 87.064,126.833 87.141 C 126.833 88.745,132.073 88.964,132.303 87.369 C 132.356 87.002,132.375 87.000,135.803 86.992 C 140.574 86.980,141.500 86.831,141.500 86.076 C 141.500 85.630,141.982 85.351,142.585 85.449 C 142.905 85.501,143.167 85.475,143.167 85.391 C 143.167 85.306,143.326 85.226,143.522 85.211 C 143.921 85.181,144.667 84.549,144.667 84.241 C 144.667 84.065,142.988 83.782,141.750 83.749 C 140.353 83.712,138.438 84.216,138.758 84.536 C 138.849 84.627,138.737 84.640,137.264 84.711 C 136.135 84.766,136.095 84.754,135.379 84.134 C 134.976 83.785,134.557 83.499,134.448 83.499 C 133.723 83.495,133.500 82.510,133.500 79.304 C 133.500 75.130,133.427 75.221,136.917 75.093 C 138.660 75.029,139.276 74.910,140.417 74.418 C 140.692 74.299,141.179 74.147,141.500 74.080 C 145.326 73.284,143.967 72.224,138.963 72.101 L 136.002 72.029 134.982 71.348 C 134.421 70.973,133.857 70.667,133.729 70.667 C 132.656 70.667,127.500 65.921,127.500 64.933 C 127.500 64.733,126.813 63.295,126.421 62.673 C 125.864 61.788,125.846 61.424,125.807 49.917 L 125.771 39.250 126.344 38.966 C 127.427 38.430,134.988 38.607,135.340 39.177 C 135.399 39.273,135.459 44.083,135.473 49.866 C 135.500 60.442,135.521 60.833,136.078 60.833 C 136.353 60.833,136.833 61.382,136.833 61.696 C 136.833 62.785,139.886 63.320,142.322 62.657 C 143.556 62.321,143.598 62.292,144.249 61.323 C 144.615 60.779,144.968 60.333,145.034 60.333 C 145.099 60.333,145.362 59.977,145.618 59.542 L 146.083 58.750 146.138 50.167 C 146.177 43.989,146.137 41.321,145.995 40.647 C 145.601 38.783,145.867 38.669,150.614 38.668 C 156.101 38.666,155.500 36.797,155.494 53.833 C 155.488 69.288,155.432 70.503,154.656 72.079 C 154.206 72.994,154.151 73.242,154.260 73.863 C 154.578 75.660,154.531 75.754,153.250 75.871 C 152.791 75.913,152.746 75.974,152.699 76.612 C 152.644 77.367,152.440 77.627,151.829 77.720 C 151.612 77.753,151.406 77.886,151.372 78.015 C 151.222 78.576,150.922 79.002,150.608 79.102 C 150.257 79.214,149.682 79.805,149.672 80.065 C 149.662 80.332,149.093 80.656,148.625 80.661 C 148.177 80.667,148.046 81.013,148.147 81.925 C 148.158 82.029,147.925 82.072,147.568 82.030 C 146.517 81.907,145.403 83.281,146.280 83.618 C 146.400 83.664,146.462 83.760,146.418 83.831 C 146.374 83.902,146.637 83.965,147.002 83.970 C 147.368 83.975,147.667 83.909,147.667 83.823 C 147.667 83.737,147.756 83.685,147.864 83.708 C 147.975 83.732,148.082 83.530,148.107 83.250 C 148.189 82.342,148.330 81.978,148.547 82.117 C 148.892 82.338,150.977 82.338,151.121 82.116 C 151.192 82.006,151.250 81.692,151.250 81.417 C 151.250 80.974,151.313 80.911,151.792 80.864 C 152.090 80.836,152.333 80.742,152.333 80.656 C 152.333 80.570,152.450 80.500,152.593 80.500 C 152.736 80.500,152.807 80.425,152.750 80.333 C 152.693 80.242,152.722 80.167,152.813 80.167 C 152.904 80.167,153.002 79.923,153.031 79.625 C 153.071 79.208,153.171 79.071,153.462 79.030 C 154.012 78.952,154.298 78.394,154.407 77.190 C 154.520 75.941,154.571 75.834,155.052 75.831 C 155.579 75.827,155.830 75.621,155.977 75.069 L 156.107 74.583 158.012 74.535 C 159.721 74.492,159.943 74.520,160.177 74.806 C 161.136 75.984,164.981 75.976,165.373 74.796 C 165.427 74.634,166.454 74.563,169.680 74.497 C 172.524 74.438,174.034 74.344,174.272 74.209 C 174.590 74.030,174.950 73.227,174.786 73.063 C 174.588 72.866,170.753 72.445,167.500 72.264 C 163.490 72.041,163.016 71.940,162.554 71.216 C 162.391 70.960,162.198 70.707,162.125 70.654 C 161.743 70.379,161.677 67.254,161.660 48.467 C 161.650 37.377,161.666 28.284,161.696 28.260 C 162.434 27.683,162.717 27.667,171.984 27.671 C 181.916 27.675,182.135 27.693,182.913 28.568 C 183.454 29.175,183.885 29.264,186.601 29.325 C 186.878 29.332,186.984 29.484,187.101 30.042 C 187.246 30.730,187.271 30.752,188.000 30.833 C 188.731 30.915,188.752 30.933,188.833 31.579 C 188.907 32.165,188.984 32.260,189.500 32.412 C 190.324 32.654,190.500 32.799,190.500 33.239 C 190.500 33.686,190.736 33.911,191.358 34.059 C 191.697 34.140,191.834 34.308,191.946 34.781 C 192.065 35.288,192.188 35.423,192.636 35.539 C 193.180 35.680,193.380 35.964,193.575 36.875 C 193.651 37.229,193.769 37.333,194.097 37.333 C 194.928 37.333,195.086 37.551,195.141 38.771 C 195.204 40.184,195.216 40.201,196.058 40.131 L 196.750 40.073 196.750 38.745 C 196.750 37.771,196.694 37.428,196.542 37.458 C 196.427 37.481,196.352 37.406,196.375 37.292 C 196.400 37.167,196.226 37.076,195.942 37.066 C 195.368 37.046,195.194 36.804,195.272 36.133 C 195.370 35.299,194.777 34.180,194.175 34.060 C 193.658 33.957,193.607 33.871,193.660 33.211 C 193.701 32.698,193.501 32.396,193.315 32.691 C 193.205 32.864,193.171 32.844,193.169 32.607 C 193.168 32.401,193.083 32.330,192.917 32.394 C 192.779 32.446,192.667 32.422,192.667 32.340 C 192.667 32.257,192.498 32.166,192.292 32.137 C 191.997 32.095,191.927 31.991,191.967 31.652 C 192.020 31.193,191.630 30.733,191.341 30.912 C 191.245 30.971,191.167 30.937,191.167 30.837 C 191.167 30.718,190.799 30.671,190.125 30.702 L 189.083 30.750 189.000 30.000 C 188.954 29.587,188.879 29.274,188.833 29.303 C 188.787 29.333,188.539 29.276,188.281 29.178 C 188.023 29.080,187.745 29.000,187.663 29.000 C 187.582 29.000,187.465 28.732,187.403 28.405 C 187.271 27.696,186.945 27.534,185.659 27.535 C 185.159 27.535,184.665 27.528,184.561 27.518 C 184.367 27.499,184.113 26.901,184.153 26.554 C 184.185 26.277,183.844 26.093,183.167 26.022 C 182.295 25.930,162.741 25.814,162.655 25.901 M173.381 37.214 C 173.016 37.290,172.506 37.585,172.167 37.916 L 171.582 38.487 171.583 49.452 C 171.583 60.203,171.633 61.333,172.101 61.333 C 172.229 61.333,172.324 61.390,172.314 61.458 C 172.213 62.098,172.918 62.333,174.936 62.333 C 176.007 62.333,176.684 62.249,177.119 62.060 C 178.104 61.634,178.364 61.542,179.167 61.337 C 181.158 60.827,181.833 60.615,181.833 60.500 C 181.833 60.431,182.398 59.985,183.088 59.507 C 183.778 59.030,184.472 58.440,184.629 58.195 C 184.976 57.653,185.012 57.605,185.767 56.670 C 186.452 55.823,186.620 55.460,186.925 54.167 C 187.044 53.663,187.334 52.576,187.571 51.751 C 188.107 49.880,188.108 49.249,187.577 47.488 C 187.345 46.715,187.081 45.746,186.992 45.333 C 186.621 43.623,186.411 43.138,185.794 42.567 C 185.449 42.248,185.167 41.916,185.167 41.829 C 185.167 41.480,182.864 39.447,182.010 39.042 C 181.511 38.806,180.798 38.411,180.426 38.165 C 179.247 37.386,175.187 36.838,173.381 37.214 M65.750 37.423 C 64.435 37.661,63.577 38.044,63.332 38.502 C 63.163 38.819,63.076 41.881,63.224 42.333 C 63.269 42.471,63.351 42.790,63.406 43.042 C 63.489 43.419,63.596 43.500,64.014 43.500 C 64.993 43.500,65.169 43.277,65.105 42.120 C 65.074 41.550,65.085 40.840,65.129 40.542 L 65.210 40.000 72.230 39.996 C 78.359 39.993,80.316 39.906,80.597 39.626 C 80.802 39.420,80.663 37.766,80.423 37.546 C 80.344 37.475,80.334 37.510,80.400 37.625 C 80.553 37.891,80.296 37.896,80.033 37.633 C 79.923 37.523,79.833 37.488,79.833 37.556 C 79.833 37.623,79.686 37.600,79.506 37.503 C 78.992 37.228,67.206 37.159,65.750 37.423 M173.563 42.024 C 173.682 42.616,174.080 42.987,174.606 42.995 C 174.880 42.999,174.988 43.135,175.071 43.579 C 175.184 44.179,175.691 44.667,176.204 44.667 C 176.423 44.667,176.500 44.799,176.500 45.178 C 176.500 45.764,176.760 46.333,177.028 46.333 C 177.874 46.333,177.995 46.951,178.009 51.364 C 178.024 55.816,178.022 55.825,177.214 55.831 C 176.735 55.834,176.500 56.295,176.500 57.231 C 176.500 58.280,176.016 58.736,174.649 58.977 C 174.076 59.078,173.553 59.247,173.488 59.352 C 173.214 59.796,173.173 58.512,173.196 50.208 C 173.218 42.157,173.286 40.638,173.563 42.024 M215.333 46.453 C 215.104 46.495,214.845 46.597,214.758 46.681 C 214.671 46.765,214.473 46.833,214.318 46.833 C 213.852 46.833,210.667 49.205,210.667 49.552 C 210.667 49.638,210.380 50.131,210.029 50.646 C 209.002 52.156,208.654 54.499,209.178 56.383 C 209.493 57.520,210.870 56.663,212.874 54.083 C 212.945 53.992,213.229 53.654,213.503 53.333 C 213.778 53.012,214.202 52.413,214.444 52.000 C 214.687 51.587,215.140 50.950,215.451 50.583 C 216.253 49.638,216.333 49.529,216.333 49.388 C 216.333 49.319,216.639 48.951,217.013 48.571 C 217.923 47.643,217.776 46.617,216.708 46.440 C 216.054 46.332,216.007 46.333,215.333 46.453 M294.983 46.478 C 294.025 46.683,292.446 47.578,292.083 48.121 C 291.900 48.396,291.537 48.744,291.277 48.895 C 290.823 49.157,290.640 51.529,291.043 51.932 C 291.206 52.095,291.805 51.684,291.917 51.334 C 292.102 50.750,292.667 50.913,292.667 51.550 C 292.667 52.239,292.921 52.500,293.592 52.500 L 294.118 52.500 294.210 54.500 C 294.313 56.743,294.181 60.500,293.999 60.500 C 293.933 60.500,293.913 60.323,293.955 60.107 C 294.037 59.676,293.357 59.000,292.840 59.000 C 292.656 59.000,292.506 58.791,292.404 58.391 C 292.244 57.761,292.042 57.580,291.333 57.434 L 290.917 57.348 290.943 54.966 C 290.960 53.377,290.904 52.503,290.776 52.343 C 290.623 52.152,290.631 52.131,290.817 52.244 C 290.975 52.339,291.013 52.323,290.935 52.196 C 290.771 51.931,289.513 52.044,289.326 52.340 C 289.150 52.618,289.114 55.569,289.273 56.727 C 289.378 57.493,289.384 57.500,290.015 57.500 C 290.736 57.500,290.795 57.643,290.875 59.582 C 290.911 60.436,290.965 60.587,291.250 60.630 C 292.238 60.777,292.303 60.826,292.417 61.499 C 292.515 62.081,292.586 62.167,292.973 62.171 C 293.217 62.173,293.968 62.321,294.642 62.500 C 297.315 63.211,300.284 62.942,300.820 61.941 C 300.936 61.724,301.351 61.345,301.741 61.098 C 302.252 60.775,302.562 60.406,302.846 59.783 C 303.063 59.306,303.424 58.617,303.649 58.250 C 305.011 56.029,305.024 53.396,303.683 51.437 C 303.424 51.059,303.156 50.563,303.087 50.333 C 302.803 49.390,300.912 47.722,299.047 46.771 C 298.436 46.459,295.921 46.277,294.983 46.478 M332.575 47.468 C 330.558 48.312,329.510 49.214,329.479 50.134 C 329.415 52.057,329.315 52.500,328.946 52.500 C 328.582 52.500,328.500 54.328,328.500 62.497 L 328.500 69.944 328.084 70.763 C 327.191 72.523,328.064 73.518,329.940 72.877 C 330.080 72.829,330.112 70.140,330.063 62.614 C 329.991 51.627,330.170 49.691,330.488 58.012 C 330.728 64.298,330.983 66.054,331.725 66.531 C 331.844 66.608,331.815 66.746,331.636 66.948 C 330.624 68.089,330.642 70.833,331.661 70.833 C 331.752 70.833,331.843 71.616,331.869 72.625 L 331.917 74.417 333.750 74.464 C 335.410 74.507,335.617 74.547,335.935 74.890 C 336.797 75.818,339.619 75.785,340.281 74.840 C 340.471 74.568,340.702 74.500,341.428 74.500 C 341.929 74.500,342.468 74.430,342.627 74.343 C 342.786 74.257,343.122 74.144,343.373 74.091 C 343.792 74.003,344.479 73.257,344.303 73.081 C 344.261 73.039,343.876 72.992,343.447 72.975 C 343.018 72.959,342.667 72.889,342.667 72.819 C 342.667 72.750,342.385 72.602,342.042 72.491 C 340.237 71.910,340.269 72.107,340.169 60.833 C 340.079 50.751,340.103 51.051,339.296 50.084 C 338.096 48.647,336.987 47.874,335.485 47.428 C 334.369 47.096,333.432 47.109,332.575 47.468 M257.833 49.405 C 257.971 49.436,257.371 49.460,256.500 49.459 C 255.570 49.457,255.157 49.414,255.500 49.353 C 256.052 49.256,257.287 49.283,257.833 49.405 M225.207 56.708 L 225.266 57.333 224.373 57.333 C 223.434 57.333,223.312 57.113,224.159 56.943 C 224.529 56.869,224.686 56.724,224.769 56.380 C 225.007 55.385,225.087 55.445,225.207 56.708 M105.523 62.042 C 105.337 62.340,104.919 62.833,104.593 63.139 C 104.267 63.444,104.000 63.800,104.000 63.930 C 104.000 64.060,103.925 64.167,103.833 64.167 C 103.742 64.167,103.667 64.247,103.667 64.345 C 103.667 64.443,103.380 64.874,103.031 65.303 C 101.985 66.585,101.796 67.475,102.236 69.040 C 102.736 70.817,102.718 70.949,101.988 70.949 C 101.084 70.949,100.833 71.217,100.833 72.187 C 100.833 72.634,100.908 73.000,101.000 73.000 C 101.092 73.000,101.168 72.906,101.169 72.792 C 101.171 72.653,101.226 72.667,101.333 72.833 C 101.422 72.971,101.496 72.998,101.497 72.894 C 101.499 72.791,101.644 72.668,101.821 72.622 C 102.062 72.559,102.119 72.606,102.050 72.811 C 101.999 72.965,102.081 72.920,102.239 72.708 C 102.393 72.502,102.466 72.246,102.401 72.141 C 102.326 72.019,102.355 71.994,102.481 72.072 C 102.625 72.160,102.650 72.075,102.572 71.764 C 102.504 71.495,102.533 71.333,102.649 71.333 C 102.751 71.333,102.833 71.614,102.833 71.967 C 102.833 72.744,103.068 73.000,103.783 73.000 C 104.297 73.000,104.333 73.037,104.333 73.563 C 104.333 74.095,104.627 74.542,104.941 74.486 C 106.045 74.288,108.160 74.539,108.568 74.917 C 108.929 75.252,109.190 75.333,109.896 75.333 C 110.618 75.333,110.845 75.259,111.167 74.917 C 111.546 74.513,111.626 74.500,113.768 74.500 C 116.476 74.500,116.833 74.393,116.833 73.584 C 116.833 73.125,116.749 72.960,116.458 72.848 C 116.252 72.768,115.540 72.496,114.875 72.242 C 113.799 71.831,113.609 71.689,113.129 70.941 C 112.832 70.479,112.421 69.909,112.214 69.675 C 111.612 68.994,111.601 68.974,111.096 67.708 C 110.831 67.044,110.554 66.500,110.481 66.500 C 110.296 66.500,109.561 65.216,109.263 64.371 C 109.127 63.985,108.862 63.505,108.674 63.303 C 108.487 63.102,108.170 62.699,107.971 62.408 C 107.286 61.409,106.034 61.222,105.523 62.042 M348.851 70.649 C 348.519 71.572,348.439 72.476,348.665 72.748 C 348.867 72.991,350.206 73.016,350.441 72.781 C 350.630 72.592,350.670 70.333,350.484 70.333 C 350.390 70.333,350.353 70.269,350.402 70.190 C 350.451 70.112,350.170 70.048,349.778 70.048 C 349.112 70.048,349.053 70.086,348.851 70.649 M78.226 71.286 C 77.795 71.340,77.689 71.438,77.631 71.834 C 77.592 72.099,77.614 72.283,77.679 72.242 C 77.792 72.172,78.071 72.643,78.036 72.845 C 78.027 72.898,78.503 72.951,79.093 72.965 C 79.732 72.979,80.167 72.920,80.167 72.818 C 80.167 72.724,80.238 72.691,80.325 72.745 C 80.519 72.865,80.833 72.312,80.833 71.850 C 80.833 71.239,80.012 71.061,78.226 71.286 M179.875 71.289 C 179.100 71.359,179.020 71.529,179.337 72.440 C 179.443 72.744,179.634 72.939,179.841 72.955 C 180.058 72.971,180.132 72.911,180.055 72.782 C 179.971 72.642,180.013 72.645,180.194 72.792 C 180.466 73.012,182.229 72.994,182.454 72.768 C 182.522 72.700,182.593 72.357,182.610 72.007 C 182.653 71.168,182.286 71.072,179.875 71.289 M309.821 77.793 C 309.734 78.657,309.403 79.167,308.929 79.167 C 308.785 79.167,308.667 79.250,308.667 79.351 C 308.667 79.453,308.570 79.498,308.451 79.453 C 308.321 79.403,308.225 79.507,308.209 79.712 C 308.173 80.189,307.802 80.515,307.143 80.648 C 306.642 80.750,306.578 80.827,306.532 81.381 C 306.484 81.952,306.439 82.000,305.960 82.000 C 305.153 82.000,304.318 82.355,304.412 82.659 C 304.456 82.801,304.510 83.158,304.531 83.453 L 304.570 83.990 305.493 83.953 C 306.289 83.922,306.409 83.874,306.364 83.608 C 306.328 83.399,306.377 83.341,306.517 83.427 C 306.661 83.516,306.691 83.471,306.616 83.276 C 306.322 82.508,306.728 82.217,307.995 82.290 C 309.345 82.368,309.583 82.250,309.737 81.428 C 309.826 80.955,309.929 80.853,310.404 80.763 C 310.713 80.705,311.046 80.562,311.143 80.445 C 311.422 80.109,311.308 78.028,311.003 77.898 C 310.600 77.725,309.835 77.658,309.821 77.793 " stroke="none" fill="#ea9d2d" fill-rule="evenodd"></path><path id="path1" d="M270.214 22.937 C 270.271 22.993,270.208 23.149,270.074 23.283 C 269.940 23.417,269.885 23.615,269.952 23.722 C 270.235 24.175,270.104 24.310,269.275 24.419 C 268.259 24.552,267.667 24.886,267.667 25.325 C 267.667 25.648,267.403 25.982,266.833 26.381 C 265.832 27.083,265.722 32.072,266.683 33.230 C 266.768 33.333,266.995 33.628,267.189 33.886 C 267.697 34.563,268.631 35.099,269.538 35.235 C 269.971 35.300,270.369 35.423,270.423 35.510 C 270.546 35.709,271.333 35.717,271.333 35.519 C 271.333 35.437,271.427 35.378,271.542 35.387 C 273.887 35.579,276.833 34.088,276.833 32.710 C 276.833 32.553,277.034 32.498,277.505 32.526 C 277.978 32.554,278.152 32.630,278.094 32.783 C 278.048 32.902,278.114 33.000,278.240 33.000 C 278.423 33.000,278.473 32.499,278.491 30.500 L 278.514 28.000 277.693 28.000 L 276.873 28.000 276.686 27.259 C 276.496 26.505,276.006 26.000,275.463 26.000 C 275.294 26.000,275.164 25.875,275.161 25.708 C 275.151 25.154,274.697 24.811,273.648 24.566 C 272.393 24.273,272.450 24.320,272.660 23.767 C 272.794 23.415,272.777 23.301,272.582 23.227 C 272.446 23.174,272.377 23.065,272.427 22.983 C 272.478 22.900,271.982 22.833,271.315 22.833 C 270.653 22.833,270.158 22.880,270.214 22.937 M91.924 24.488 C 91.871 24.574,91.904 24.691,91.997 24.748 C 92.090 24.806,92.167 24.769,92.167 24.667 C 92.167 24.564,92.241 24.526,92.332 24.583 C 92.423 24.639,92.629 24.608,92.790 24.514 C 93.035 24.372,92.995 24.343,92.552 24.338 C 92.259 24.336,91.977 24.403,91.924 24.488 M95.314 25.292 C 95.303 25.360,95.307 25.486,95.323 25.570 C 95.339 25.654,95.235 25.626,95.093 25.508 C 94.879 25.331,94.833 25.333,94.831 25.521 C 94.829 25.702,94.791 25.698,94.650 25.500 C 94.506 25.299,94.487 25.324,94.553 25.625 C 94.631 25.981,94.585 26.000,93.647 26.000 C 92.361 26.000,92.194 26.283,92.475 27.987 C 92.612 28.817,92.667 34.964,92.667 49.584 C 92.667 73.323,92.551 71.714,94.314 72.524 C 94.974 72.827,95.492 72.889,97.958 72.960 L 100.833 73.042 100.833 72.208 C 100.833 71.216,101.078 70.949,101.988 70.949 C 102.718 70.949,102.736 70.817,102.236 69.040 C 101.796 67.475,101.985 66.585,103.031 65.303 C 103.380 64.874,103.667 64.443,103.667 64.345 C 103.667 64.247,103.742 64.167,103.833 64.167 C 103.925 64.167,104.000 64.060,104.000 63.930 C 104.000 63.800,104.267 63.444,104.593 63.139 C 104.919 62.833,105.337 62.340,105.523 62.042 C 106.034 61.222,107.286 61.409,107.971 62.408 C 108.170 62.699,108.487 63.102,108.674 63.303 C 108.862 63.505,109.127 63.985,109.263 64.371 C 109.561 65.216,110.296 66.500,110.481 66.500 C 110.554 66.500,110.831 67.044,111.096 67.708 C 111.601 68.974,111.612 68.994,112.214 69.675 C 112.421 69.909,112.836 70.485,113.137 70.954 C 113.442 71.429,113.884 71.883,114.134 71.979 C 116.819 73.007,116.775 72.999,119.687 72.999 L 122.457 73.000 122.392 71.387 C 122.318 69.564,122.038 68.573,121.325 67.602 C 121.054 67.235,120.833 66.869,120.833 66.790 C 120.833 66.429,119.994 64.877,119.602 64.513 C 119.362 64.290,119.167 64.047,119.167 63.971 C 119.167 63.582,118.063 61.581,117.514 60.974 C 117.052 60.464,116.805 59.975,116.590 59.148 C 116.304 58.043,116.046 57.656,115.458 57.447 C 115.254 57.375,115.163 57.155,115.153 56.714 C 115.125 55.389,114.800 54.615,114.208 54.463 L 113.667 54.324 113.667 52.658 L 113.667 50.992 114.163 50.892 C 114.864 50.752,115.112 50.396,115.154 49.467 C 115.161 49.312,115.372 49.086,115.623 48.966 C 115.875 48.845,116.185 48.523,116.314 48.248 C 116.562 47.717,117.618 46.194,117.930 45.917 C 118.033 45.825,118.511 45.269,118.992 44.680 C 119.472 44.092,119.963 43.513,120.083 43.393 C 120.203 43.273,120.473 42.892,120.683 42.546 C 120.894 42.200,121.108 41.879,121.160 41.833 C 121.978 41.111,122.603 40.129,122.536 39.670 C 122.394 38.701,122.213 38.667,117.322 38.667 C 112.464 38.667,112.339 38.692,112.330 39.680 C 112.327 39.970,112.175 40.154,111.788 40.333 C 111.441 40.495,111.198 40.760,111.103 41.083 C 110.849 41.944,110.642 42.290,110.260 42.495 C 110.056 42.604,109.754 42.922,109.589 43.203 C 109.423 43.483,109.166 43.835,109.019 43.984 C 108.871 44.134,108.278 44.855,107.701 45.586 C 107.125 46.318,106.465 47.142,106.235 47.417 C 105.800 47.936,104.523 49.639,103.880 50.555 C 102.913 51.934,102.185 52.014,101.931 50.771 C 101.648 49.385,101.831 44.550,102.207 43.480 C 102.571 42.444,102.582 42.212,102.630 34.375 L 102.679 26.333 101.912 26.333 C 101.490 26.333,101.018 26.268,100.864 26.187 C 100.710 26.107,100.133 25.994,99.583 25.936 C 99.033 25.878,98.561 25.764,98.534 25.684 C 98.507 25.604,98.226 25.597,97.908 25.669 C 97.591 25.740,97.296 25.741,97.253 25.672 C 97.210 25.602,96.974 25.583,96.728 25.630 C 96.424 25.688,96.214 25.624,96.072 25.429 C 95.875 25.160,95.851 25.161,95.669 25.447 C 95.495 25.718,95.484 25.719,95.566 25.458 C 95.615 25.298,95.584 25.167,95.495 25.167 C 95.406 25.167,95.324 25.223,95.314 25.292 M60.945 27.875 C 60.788 27.990,60.600 28.309,60.527 28.584 C 60.401 29.054,60.329 29.091,59.322 29.212 C 58.158 29.352,57.667 29.711,57.667 30.424 C 57.667 30.671,57.471 30.949,57.125 31.193 C 55.695 32.202,53.903 35.020,53.591 36.750 C 53.524 37.117,53.406 37.495,53.327 37.590 C 53.248 37.685,53.105 38.079,53.009 38.465 C 52.912 38.851,52.752 39.485,52.652 39.875 C 52.410 40.821,52.555 42.109,53.057 43.467 C 53.284 44.081,53.599 45.033,53.758 45.583 C 54.013 46.466,54.711 47.934,54.987 48.167 C 55.041 48.212,55.307 48.550,55.578 48.917 C 56.299 49.892,58.136 51.614,58.785 51.922 C 59.094 52.069,59.588 52.397,59.882 52.651 C 61.005 53.623,62.293 53.801,69.417 53.971 C 73.607 54.071,74.678 54.143,75.083 54.355 C 75.358 54.499,75.878 54.759,76.238 54.933 C 77.244 55.420,77.641 55.795,78.089 56.678 C 78.504 57.498,78.664 59.046,78.352 59.238 C 78.271 59.289,78.155 59.593,78.095 59.914 C 77.985 60.502,77.427 60.964,75.500 62.064 C 74.831 62.446,74.953 62.444,63.914 62.250 C 54.800 62.090,55.333 61.800,55.333 66.914 C 55.333 72.270,54.921 72.045,65.250 72.326 C 68.811 72.424,70.572 72.534,70.917 72.682 C 71.258 72.829,72.518 72.912,74.879 72.943 L 78.341 72.989 78.045 72.595 C 77.883 72.378,77.707 72.227,77.655 72.258 C 77.603 72.290,77.592 72.100,77.631 71.836 C 77.709 71.301,79.402 70.944,80.327 71.268 C 81.335 71.622,81.833 71.387,81.833 70.558 C 81.833 69.813,81.843 69.801,82.656 69.457 C 83.226 69.216,83.508 68.990,83.577 68.717 C 83.631 68.501,83.954 68.036,84.296 67.684 C 86.008 65.915,87.197 64.027,87.507 62.583 C 87.625 62.033,87.775 61.508,87.841 61.417 C 88.508 60.483,88.661 57.887,88.152 56.123 C 87.961 55.459,87.673 54.425,87.511 53.824 C 87.222 52.751,86.199 50.992,85.220 49.885 C 84.961 49.593,84.600 49.150,84.417 48.900 C 83.962 48.279,83.673 48.000,83.485 48.000 C 83.397 48.000,83.240 47.811,83.134 47.579 C 82.897 47.059,82.118 46.565,81.292 46.412 C 80.943 46.348,80.657 46.194,80.646 46.065 C 80.582 45.359,80.595 45.367,79.422 45.253 C 78.882 45.201,78.280 45.118,78.083 45.068 C 77.886 45.019,77.131 44.909,76.404 44.824 C 75.678 44.738,75.002 44.656,74.903 44.640 C 74.803 44.624,74.722 44.511,74.722 44.389 C 74.722 44.267,74.759 44.204,74.804 44.249 C 74.922 44.367,75.334 43.994,75.331 43.771 C 75.329 43.658,75.272 43.672,75.187 43.806 C 75.073 43.986,75.028 43.979,74.948 43.773 C 74.822 43.442,75.485 43.205,75.675 43.513 C 75.783 43.688,75.856 43.688,76.063 43.517 C 76.204 43.400,76.378 43.339,76.451 43.381 C 76.524 43.424,76.733 43.397,76.917 43.322 C 77.324 43.156,65.200 43.242,64.216 43.412 C 63.542 43.529,63.511 43.515,63.410 43.058 C 63.353 42.797,63.269 42.471,63.224 42.333 C 63.073 41.872,63.164 38.816,63.338 38.491 C 63.583 38.033,64.729 37.562,66.083 37.363 C 67.607 37.138,79.046 37.257,79.504 37.502 C 79.685 37.599,79.833 37.623,79.833 37.556 C 79.833 37.488,79.923 37.523,80.033 37.633 C 80.296 37.896,80.553 37.891,80.400 37.625 C 80.330 37.504,80.343 37.475,80.432 37.556 C 80.582 37.693,80.606 37.770,80.646 38.250 C 80.683 38.701,82.228 38.582,82.762 38.086 C 83.008 37.859,83.268 37.709,83.340 37.754 C 83.412 37.798,83.683 37.609,83.943 37.334 C 84.203 37.059,84.552 36.833,84.719 36.833 C 86.270 36.833,86.833 35.399,86.833 31.446 C 86.833 28.614,86.742 28.321,85.734 27.899 C 84.956 27.574,61.388 27.551,60.945 27.875 M162.333 27.930 C 162.104 28.057,161.855 28.183,161.779 28.210 C 161.357 28.359,161.699 70.348,162.125 70.654 C 162.198 70.707,162.391 70.960,162.554 71.216 C 163.016 71.940,163.490 72.041,167.500 72.264 C 169.563 72.379,172.032 72.591,172.988 72.736 C 175.529 73.122,179.577 73.104,179.420 72.708 C 179.357 72.548,179.266 72.184,179.218 71.901 L 179.131 71.385 180.107 71.295 C 180.644 71.245,182.021 71.224,183.167 71.247 C 184.313 71.270,185.118 71.255,184.956 71.215 C 184.785 71.172,184.711 71.060,184.780 70.946 C 184.856 70.820,184.804 70.826,184.633 70.964 C 184.402 71.151,184.362 71.096,184.307 70.525 C 184.239 69.815,184.326 69.765,186.333 69.363 C 186.834 69.263,186.924 69.173,186.967 68.727 C 187.015 68.240,187.069 68.200,187.839 68.098 C 188.687 67.986,189.000 67.697,189.000 67.030 C 189.000 66.789,189.153 66.675,189.586 66.594 C 190.032 66.510,190.275 66.322,190.598 65.809 C 190.833 65.439,191.063 65.174,191.111 65.222 C 191.244 65.355,192.146 64.494,192.265 64.121 C 192.322 63.939,192.724 63.350,193.158 62.811 C 193.592 62.273,194.047 61.514,194.169 61.125 C 194.389 60.423,195.008 59.422,195.441 59.065 C 195.565 58.963,195.859 58.026,196.094 56.982 C 196.329 55.938,196.761 54.597,197.053 54.003 L 197.583 52.923 197.583 49.670 C 197.583 46.533,197.568 46.387,197.167 45.583 C 196.774 44.798,196.752 44.615,196.789 42.400 L 196.829 40.051 196.100 40.123 C 195.218 40.211,195.204 40.193,195.141 38.771 C 195.086 37.551,194.928 37.333,194.097 37.333 C 193.769 37.333,193.651 37.229,193.575 36.875 C 193.380 35.964,193.180 35.680,192.636 35.539 C 192.188 35.423,192.065 35.288,191.946 34.781 C 191.834 34.308,191.697 34.140,191.358 34.059 C 190.736 33.911,190.500 33.686,190.500 33.239 C 190.500 32.799,190.324 32.654,189.500 32.412 C 188.984 32.260,188.907 32.165,188.833 31.579 C 188.752 30.933,188.731 30.915,188.000 30.833 C 187.271 30.752,187.246 30.730,187.101 30.042 C 186.984 29.484,186.878 29.332,186.601 29.325 C 183.885 29.264,183.454 29.175,182.913 28.568 C 182.579 28.192,182.150 27.922,181.736 27.826 C 180.596 27.562,162.826 27.657,162.333 27.930 M128.550 36.958 C 129.356 36.988,130.631 36.988,131.383 36.957 C 132.135 36.926,131.475 36.901,129.917 36.902 C 128.358 36.902,127.743 36.927,128.550 36.958 M149.958 36.954 C 150.256 36.991,150.744 36.991,151.042 36.954 C 151.340 36.917,151.096 36.887,150.500 36.887 C 149.904 36.887,149.660 36.917,149.958 36.954 M245.958 36.958 C 248.181 36.984,251.819 36.984,254.042 36.958 C 256.265 36.932,254.446 36.910,250.000 36.910 C 245.554 36.910,243.735 36.932,245.958 36.958 M135.268 37.236 C 135.323 37.381,135.442 37.500,135.532 37.500 C 135.751 37.500,135.614 37.121,135.364 37.038 C 135.243 36.998,135.205 37.074,135.268 37.236 M178.977 37.510 C 179.402 37.625,180.054 37.920,180.426 38.165 C 180.798 38.411,181.511 38.806,182.010 39.042 C 182.864 39.447,185.167 41.480,185.167 41.829 C 185.167 41.916,185.449 42.248,185.794 42.567 C 186.411 43.138,186.621 43.623,186.992 45.333 C 187.081 45.746,187.345 46.715,187.577 47.488 C 188.108 49.249,188.107 49.880,187.571 51.751 C 187.334 52.576,187.044 53.663,186.925 54.167 C 186.620 55.460,186.452 55.823,185.767 56.670 C 185.012 57.605,184.976 57.653,184.629 58.195 C 184.472 58.440,183.778 59.030,183.088 59.507 C 182.398 59.985,181.833 60.431,181.833 60.500 C 181.833 60.615,181.158 60.827,179.167 61.337 C 178.364 61.542,178.104 61.634,177.119 62.060 C 176.684 62.249,176.007 62.333,174.936 62.333 C 172.918 62.333,172.213 62.098,172.314 61.458 C 172.324 61.390,172.229 61.333,172.101 61.333 C 171.633 61.333,171.583 60.203,171.583 49.452 L 171.582 38.487 172.167 37.916 C 173.046 37.058,176.538 36.850,178.977 37.510 M294.815 37.190 C 292.089 37.302,291.598 37.424,291.405 38.041 C 291.239 38.576,291.039 38.661,289.950 38.664 C 288.844 38.667,288.000 39.025,288.000 39.490 C 288.000 39.816,286.861 40.833,286.497 40.833 C 286.192 40.833,283.796 43.365,283.102 44.420 C 282.365 45.539,281.475 46.963,281.220 47.432 C 281.116 47.623,280.977 48.223,280.912 48.765 C 280.786 49.812,280.246 51.595,279.936 51.984 C 279.677 52.310,279.685 57.151,279.946 57.683 C 280.359 58.524,280.799 60.127,280.908 61.189 C 281.003 62.108,281.147 62.488,281.761 63.439 C 282.167 64.068,282.547 64.730,282.605 64.909 C 282.663 65.088,282.798 65.322,282.906 65.430 C 283.013 65.537,283.359 65.944,283.675 66.335 C 283.991 66.725,284.505 67.279,284.817 67.564 C 285.128 67.850,285.503 68.201,285.650 68.344 C 286.343 69.022,288.071 70.189,288.513 70.278 C 288.785 70.332,289.047 70.442,289.097 70.522 C 289.146 70.601,289.319 70.667,289.481 70.667 C 289.643 70.667,290.118 70.893,290.536 71.170 C 291.719 71.953,293.738 72.397,295.488 72.259 C 300.801 71.839,303.180 72.177,302.152 73.205 C 301.930 73.427,299.854 74.333,299.568 74.333 C 299.499 74.333,299.325 74.432,299.180 74.552 C 298.710 74.943,297.182 75.204,295.615 75.160 C 293.340 75.096,293.246 75.114,292.588 75.735 L 291.986 76.303 292.008 79.083 C 292.034 82.336,292.245 83.266,293.024 83.560 C 293.286 83.659,293.500 83.798,293.500 83.870 C 293.500 83.941,293.585 84.000,293.690 84.000 C 293.794 84.000,293.963 84.114,294.065 84.254 C 294.167 84.393,294.476 84.544,294.750 84.589 C 295.025 84.633,295.408 84.706,295.602 84.749 C 295.795 84.793,296.320 84.639,296.769 84.408 C 297.743 83.906,299.830 83.620,301.168 83.806 C 301.672 83.876,302.647 83.929,303.334 83.925 C 304.702 83.916,304.674 83.946,304.416 82.740 C 304.332 82.347,305.057 82.000,305.960 82.000 C 306.439 82.000,306.484 81.952,306.532 81.381 C 306.578 80.827,306.642 80.750,307.143 80.648 C 307.802 80.515,308.173 80.189,308.209 79.712 C 308.225 79.507,308.321 79.403,308.451 79.453 C 308.570 79.498,308.667 79.453,308.667 79.351 C 308.667 79.250,308.785 79.167,308.929 79.167 C 309.403 79.167,309.734 78.657,309.821 77.793 C 309.836 77.647,310.784 77.729,310.945 77.890 C 311.203 78.148,311.266 77.945,311.202 77.051 C 311.128 76.012,311.356 75.667,312.115 75.667 C 312.564 75.667,312.557 75.696,312.573 73.750 C 312.580 72.904,312.672 72.105,312.784 71.917 C 313.871 70.101,313.874 70.058,313.984 53.833 C 314.070 41.111,314.050 39.055,313.843 38.875 C 313.685 38.738,313.024 38.667,311.903 38.667 C 310.058 38.667,310.000 38.697,310.000 39.659 C 310.000 40.072,309.926 40.136,309.339 40.230 C 308.650 40.340,308.333 40.687,308.333 41.332 C 308.333 41.527,308.258 41.640,308.167 41.583 C 308.075 41.527,308.000 41.344,308.000 41.177 C 308.000 40.697,307.635 40.511,306.273 40.294 C 305.016 40.094,305.000 40.085,304.896 39.534 C 304.770 38.858,304.362 38.668,303.031 38.664 C 301.958 38.661,301.823 38.597,301.544 37.963 C 301.434 37.713,301.173 37.468,300.964 37.418 C 300.045 37.197,297.213 37.092,294.815 37.190 M318.667 37.184 C 318.667 37.286,318.567 37.331,318.444 37.284 C 318.322 37.237,318.222 37.300,318.222 37.424 C 318.222 37.590,318.302 37.606,318.528 37.485 C 318.803 37.338,318.958 37.000,318.750 37.000 C 318.704 37.000,318.667 37.083,318.667 37.184 M212.731 37.306 C 211.788 37.434,211.333 37.717,211.333 38.177 C 211.333 38.411,211.163 38.501,210.583 38.573 C 210.171 38.625,209.477 38.712,209.042 38.766 C 207.982 38.900,207.700 39.076,207.537 39.703 C 207.437 40.092,207.219 40.323,206.717 40.576 C 205.947 40.964,204.403 42.501,203.530 43.750 C 203.210 44.208,202.898 44.621,202.836 44.667 C 202.699 44.770,202.107 45.883,201.773 46.667 C 201.636 46.987,201.369 47.602,201.179 48.033 C 200.989 48.463,200.833 48.861,200.833 48.917 C 200.833 49.025,200.280 50.318,199.949 50.984 C 199.619 51.648,199.708 57.186,200.068 58.377 C 200.975 61.381,202.312 64.202,203.414 65.440 C 203.507 65.544,203.727 65.828,203.902 66.069 C 205.165 67.813,207.707 69.899,209.281 70.485 C 209.997 70.751,210.935 71.167,211.365 71.410 C 213.743 72.751,222.110 73.706,222.382 72.667 C 222.430 72.483,222.406 72.333,222.329 72.333 C 222.252 72.333,222.210 72.136,222.236 71.894 C 222.285 71.437,222.567 71.292,224.289 70.840 C 224.693 70.735,225.072 70.510,225.176 70.315 C 225.446 69.812,225.836 69.461,226.670 68.972 C 228.734 67.760,230.116 65.815,229.819 64.538 C 229.740 64.196,229.673 63.560,229.671 63.125 C 229.668 62.617,229.592 62.326,229.458 62.312 C 228.069 62.170,228.000 62.125,228.000 61.348 C 228.000 60.688,227.998 60.686,227.292 60.635 C 226.625 60.586,226.574 60.546,226.428 59.954 C 226.144 58.804,223.024 58.931,222.730 60.104 C 222.664 60.369,222.397 60.572,221.859 60.772 C 220.907 61.125,221.003 61.049,220.915 61.507 C 220.806 62.074,220.649 62.170,219.566 62.334 C 219.025 62.416,218.291 62.568,217.935 62.672 C 217.334 62.848,217.255 62.830,216.859 62.434 L 216.431 62.007 216.896 61.521 C 217.152 61.255,217.586 60.991,217.860 60.936 C 218.249 60.858,218.417 60.690,218.621 60.168 C 218.766 59.801,218.952 59.500,219.035 59.500 C 219.366 59.500,220.181 58.383,220.274 57.801 C 220.356 57.292,220.456 57.166,220.851 57.079 C 221.392 56.961,221.514 56.817,221.750 56.022 C 221.878 55.589,222.050 55.417,222.500 55.272 C 222.961 55.123,223.095 54.984,223.138 54.610 C 223.168 54.341,223.438 53.897,223.763 53.582 C 224.076 53.277,224.333 52.959,224.333 52.874 C 224.333 52.790,224.633 52.406,225.000 52.020 C 225.367 51.635,225.667 51.221,225.667 51.102 C 225.667 50.982,226.060 50.461,226.542 49.944 C 228.872 47.438,229.568 46.535,229.760 45.770 C 229.821 45.528,229.937 45.289,230.018 45.239 C 230.214 45.118,230.210 44.379,230.013 44.258 C 229.928 44.206,229.698 43.677,229.500 43.083 C 229.182 42.126,229.080 41.987,228.612 41.867 C 228.139 41.745,228.078 41.659,228.033 41.046 C 227.982 40.364,227.980 40.362,227.174 40.251 C 226.418 40.147,226.358 40.103,226.260 39.579 C 226.199 39.253,226.031 38.979,225.859 38.925 C 225.632 38.853,222.777 38.530,222.143 38.504 C 222.084 38.502,221.992 38.325,221.939 38.112 C 221.763 37.413,221.171 37.303,217.250 37.245 C 215.233 37.214,213.200 37.242,212.731 37.306 M332.750 37.491 C 331.927 37.627,331.333 37.939,331.333 38.235 C 331.333 38.523,330.592 38.667,329.104 38.667 C 327.753 38.668,326.912 39.045,326.741 39.727 C 326.495 40.708,323.923 40.784,323.472 39.823 C 323.046 38.916,322.780 38.780,321.274 38.700 C 319.692 38.617,319.455 38.762,319.487 39.787 C 319.498 40.133,319.561 47.211,319.628 55.516 C 319.716 66.364,319.803 70.682,319.939 70.850 C 320.043 70.978,320.179 71.319,320.240 71.608 C 320.473 72.699,320.934 72.824,325.125 72.929 C 326.981 72.975,328.000 72.941,328.000 72.834 C 328.000 72.742,327.925 72.667,327.833 72.667 C 327.523 72.667,327.666 71.588,328.084 70.763 L 328.500 69.944 328.500 62.497 C 328.500 54.328,328.582 52.500,328.946 52.500 C 329.315 52.500,329.415 52.057,329.479 50.134 C 329.504 49.407,329.892 48.947,331.083 48.230 C 332.902 47.137,333.896 46.956,335.485 47.428 C 336.987 47.874,338.096 48.647,339.296 50.084 C 340.103 51.051,340.079 50.751,340.169 60.833 C 340.269 72.107,340.237 71.910,342.042 72.491 C 342.385 72.602,342.667 72.756,342.667 72.833 C 342.667 72.911,344.065 72.982,345.775 72.993 C 348.534 73.009,348.860 72.983,348.674 72.759 C 348.059 72.018,348.861 70.048,349.778 70.048 C 350.170 70.048,350.451 70.112,350.402 70.190 C 350.353 70.269,350.393 70.333,350.490 70.333 C 350.712 70.333,350.740 50.398,350.519 50.262 C 350.438 50.211,350.269 50.296,350.144 50.450 C 349.945 50.694,349.954 50.715,350.208 50.620 C 350.398 50.549,350.500 50.591,350.500 50.740 C 350.500 50.989,350.226 50.996,349.843 50.757 C 349.687 50.660,349.579 50.678,349.535 50.811 C 349.427 51.136,349.000 50.692,349.000 50.255 C 349.000 48.828,348.278 46.500,347.835 46.500 C 347.506 46.500,347.487 46.458,347.150 45.000 C 346.893 43.892,346.741 43.667,346.247 43.667 C 345.853 43.667,345.670 43.390,345.661 42.778 C 345.656 42.427,345.229 41.708,345.076 41.792 C 344.621 42.041,344.166 41.791,344.164 41.292 C 344.160 40.507,343.967 40.307,343.118 40.212 C 342.404 40.131,342.073 39.817,342.149 39.292 C 342.165 39.182,342.097 39.161,341.749 39.169 C 341.703 39.170,341.422 39.070,341.124 38.947 C 340.827 38.824,340.096 38.709,339.500 38.690 C 338.060 38.646,336.986 38.491,337.079 38.341 C 337.384 37.846,334.282 37.237,332.750 37.491 M126.344 38.966 L 125.771 39.250 125.807 49.917 C 125.846 61.424,125.864 61.788,126.421 62.673 C 126.813 63.295,127.500 64.733,127.500 64.933 C 127.500 65.921,132.656 70.667,133.729 70.667 C 133.857 70.667,134.421 70.973,134.982 71.348 L 136.002 72.029 138.963 72.101 C 143.967 72.224,145.326 73.284,141.500 74.080 C 141.179 74.147,140.692 74.299,140.417 74.418 C 139.276 74.910,138.660 75.029,136.917 75.093 C 133.427 75.221,133.500 75.130,133.500 79.304 C 133.500 82.510,133.723 83.495,134.448 83.499 C 134.557 83.499,134.976 83.785,135.379 84.134 C 136.095 84.754,136.135 84.766,137.264 84.711 C 138.737 84.640,138.849 84.627,138.758 84.536 C 138.409 84.186,140.724 83.637,141.966 83.775 C 144.414 84.047,147.139 83.947,146.280 83.618 C 145.403 83.281,146.517 81.907,147.568 82.030 C 147.925 82.072,148.158 82.029,148.147 81.925 C 148.046 81.013,148.177 80.667,148.625 80.661 C 149.093 80.656,149.662 80.332,149.672 80.065 C 149.682 79.805,150.257 79.214,150.608 79.102 C 150.922 79.002,151.222 78.576,151.372 78.015 C 151.406 77.886,151.612 77.753,151.829 77.720 C 152.440 77.627,152.644 77.367,152.699 76.612 C 152.746 75.974,152.791 75.913,153.250 75.871 C 154.531 75.754,154.578 75.660,154.260 73.863 C 154.151 73.242,154.206 72.994,154.656 72.079 C 155.432 70.503,155.488 69.288,155.494 53.833 C 155.500 36.797,156.101 38.666,150.614 38.668 C 145.867 38.669,145.601 38.783,145.995 40.647 C 146.137 41.321,146.177 43.989,146.138 50.167 L 146.083 58.750 145.618 59.542 C 145.362 59.977,145.099 60.333,145.034 60.333 C 144.968 60.333,144.615 60.779,144.249 61.323 C 142.887 63.349,136.833 63.630,136.833 61.667 C 136.833 61.363,136.335 60.833,136.049 60.833 C 135.526 60.833,135.500 60.337,135.473 49.866 C 135.459 44.083,135.399 39.273,135.340 39.177 C 134.988 38.607,127.427 38.430,126.344 38.966 M239.088 38.892 C 238.559 39.051,238.396 39.198,238.274 39.626 C 238.150 40.056,238.010 40.181,237.556 40.266 C 236.945 40.381,236.500 40.868,236.500 41.424 C 236.500 41.620,236.258 41.966,235.950 42.212 C 235.648 42.453,235.223 43.010,235.006 43.450 C 234.788 43.890,234.561 44.288,234.502 44.333 C 234.317 44.475,233.686 45.883,233.417 46.754 C 232.740 48.940,233.363 53.086,234.506 54.000 C 234.563 54.046,234.791 54.449,235.011 54.895 C 235.508 55.900,237.896 58.241,239.228 59.028 C 239.989 59.478,242.645 59.738,247.000 59.790 C 252.280 59.852,252.362 59.872,253.098 61.223 C 253.596 62.138,253.589 62.154,252.417 62.612 C 251.703 62.891,247.704 62.875,245.937 62.585 C 244.984 62.429,242.524 62.307,239.021 62.243 C 236.030 62.188,233.508 62.120,233.417 62.093 C 232.961 61.956,232.973 69.514,233.429 70.532 C 234.115 72.062,233.917 72.016,240.583 72.179 C 245.079 72.289,246.646 72.388,248.167 72.657 C 249.990 72.980,255.333 73.165,255.333 72.905 C 255.333 72.852,255.217 72.693,255.074 72.550 C 254.269 71.745,255.602 70.894,257.336 71.107 L 258.089 71.199 258.284 70.468 C 258.434 69.908,258.671 69.584,259.304 69.077 C 259.758 68.714,260.296 68.174,260.500 67.878 C 260.704 67.582,261.022 67.170,261.205 66.962 C 262.905 65.036,263.373 58.911,262.012 56.397 C 261.503 55.455,260.121 53.782,259.662 53.551 C 258.989 53.213,258.321 52.479,258.218 51.965 C 258.065 51.198,257.691 51.148,251.417 51.067 C 245.014 50.983,244.563 50.925,243.202 50.012 L 242.321 49.421 242.786 49.087 C 243.041 48.903,243.458 48.527,243.712 48.251 L 244.175 47.750 251.879 47.702 C 260.676 47.647,259.882 47.732,260.293 46.802 C 260.693 45.899,260.978 39.211,260.632 38.865 C 260.347 38.581,240.036 38.606,239.088 38.892 M267.382 38.888 C 267.088 38.995,266.788 39.158,266.714 39.250 C 266.641 39.342,266.619 46.279,266.665 54.667 C 266.761 71.914,266.618 70.286,268.188 72.043 L 269.043 73.000 272.105 73.000 L 275.167 73.000 275.167 72.022 C 275.167 71.301,275.253 70.935,275.496 70.626 C 275.818 70.217,275.826 69.896,275.834 57.062 C 275.839 49.832,275.904 43.654,275.978 43.333 C 276.151 42.584,276.177 42.495,276.356 42.025 C 276.530 41.566,276.586 39.531,276.429 39.373 C 276.369 39.314,276.124 39.239,275.884 39.207 C 275.643 39.174,275.292 39.040,275.103 38.907 C 274.660 38.597,268.221 38.581,267.382 38.888 M173.233 43.917 C 173.234 45.292,173.259 45.832,173.291 45.117 C 173.322 44.403,173.322 43.278,173.290 42.617 C 173.259 41.957,173.233 42.542,173.233 43.917 M216.708 46.440 C 217.776 46.617,217.923 47.643,217.013 48.571 C 216.639 48.951,216.333 49.319,216.333 49.388 C 216.333 49.529,216.253 49.638,215.451 50.583 C 215.140 50.950,214.687 51.587,214.444 52.000 C 214.202 52.413,213.778 53.012,213.503 53.333 C 213.229 53.654,212.945 53.992,212.874 54.083 C 210.870 56.663,209.493 57.520,209.178 56.383 C 208.654 54.499,209.002 52.156,210.029 50.646 C 210.380 50.131,210.667 49.638,210.667 49.552 C 210.667 49.205,213.852 46.833,214.318 46.833 C 214.473 46.833,214.671 46.765,214.758 46.681 C 214.895 46.549,215.307 46.434,215.917 46.358 C 216.008 46.346,216.364 46.383,216.708 46.440 M299.047 46.771 C 300.912 47.722,302.803 49.390,303.087 50.333 C 303.156 50.563,303.424 51.059,303.683 51.437 C 305.024 53.396,305.011 56.029,303.649 58.250 C 303.424 58.617,303.063 59.306,302.846 59.783 C 302.562 60.406,302.252 60.775,301.741 61.098 C 301.351 61.345,300.936 61.724,300.820 61.941 C 300.284 62.942,297.315 63.211,294.642 62.500 C 293.968 62.321,293.217 62.173,292.973 62.171 C 292.586 62.167,292.515 62.081,292.417 61.499 C 292.303 60.826,292.238 60.777,291.250 60.630 C 290.965 60.587,290.911 60.436,290.875 59.582 C 290.795 57.643,290.736 57.500,290.015 57.500 C 289.255 57.500,289.165 57.154,289.169 54.268 C 289.172 52.295,289.255 52.111,290.165 52.050 C 290.550 52.024,290.809 52.071,290.756 52.157 C 290.704 52.241,290.730 52.353,290.814 52.405 C 290.904 52.460,290.935 51.819,290.889 50.831 L 290.811 49.164 291.280 48.893 C 291.539 48.743,291.900 48.396,292.083 48.121 C 293.079 46.628,297.202 45.829,299.047 46.771 M173.241 54.250 C 173.240 57.000,173.263 58.148,173.291 56.802 C 173.319 55.456,173.319 53.206,173.291 51.802 C 173.263 50.398,173.241 51.500,173.241 54.250 M330.076 59.583 C 330.076 63.525,330.098 65.114,330.125 63.114 C 330.151 61.114,330.151 57.889,330.125 55.947 C 330.098 54.005,330.076 55.642,330.076 59.583 M350.519 72.135 C 350.508 72.352,350.425 72.474,350.329 72.414 C 350.235 72.356,350.179 72.398,350.204 72.507 C 350.229 72.616,350.112 72.729,349.943 72.757 C 349.496 72.832,349.400 72.987,349.821 72.955 C 350.291 72.920,350.717 72.438,350.617 72.054 C 350.556 71.816,350.534 71.833,350.519 72.135 M102.394 72.289 C 102.415 72.560,102.351 72.596,101.750 72.646 C 101.612 72.657,101.500 72.742,101.500 72.833 C 101.500 72.925,101.612 73.000,101.750 73.000 C 101.888 73.000,102.001 72.906,102.003 72.792 C 102.004 72.641,102.045 72.647,102.151 72.813 C 102.231 72.939,102.379 72.991,102.481 72.928 C 102.703 72.791,102.728 72.224,102.519 72.095 C 102.438 72.045,102.381 72.132,102.394 72.289 " stroke="none" fill="#983a5b" fill-rule="evenodd"></path></g></svg>